# xmcd
#
# Track frame offsets: 
#        182
#        13290
#        22887
#        30802
#        43267
#        50162
#        62555
#        74095
#        90102
#        99725
#        112920
#        126997
#        141525
#        154387
#        169260
#        179597
#        187597
#        197372
#        206235
#        216297
#        225717
#        237232
#        247652
#        260460
#        271360
#        285435
#
# Disc length: 3992 seconds
#
# Revision: 0
# Processed by: cddbd v1.4PL0 Copyright (c) Steve Scherf et al.
# Submitted via: ExactAudioCopy v0.90b3
#
DISCID=770f961a
DTITLE=Jim Reeves - Welcome To My World - Disc 16
DYEAR=1900
DGENRE=Country
TTITLE0=Distant Drum (1994)
TTITLE1=The Storm (1994)
TTITLE2=Trying To Forget (1994)
TTITLE3=Nobody's Fool (1994)
TTITLE4=Gypsy Feet (1994)
TTITLE5=The Writing's On The Wall (1994)
TTITLE6=I'm Glad You're Better (1994)
TTITLE7=Please Forgive (1994)
TTITLE8=Right Words (1994)
TTITLE9=You Darling You (1994)
TTITLE10=One Little Rose (1994)
TTITLE11=I'd Rather Not Know (1994)
TTITLE12=Ballad Of 96 (1994)
TTITLE13=Lonesome Waltz (1994)
TTITLE14=Your Wedding (1994)
TTITLE15=Read This Letter (1994)
TTITLE16=I Let The World Pass Me By (1994)
TTITLE17=Send Me Back My Love (1994)
TTITLE18=My Hands Are Clean (1994)
TTITLE19=Crying In My Sleep (1994)
TTITLE20=Deep Dark Water (1994)
TTITLE21=Before You Came Along (1994)
TTITLE22=Crying Is My Favorite Mood (1994)
TTITLE23=He Will (1994)
TTITLE24=Make Me Wonderful In Her Eyes (1994)
TTITLE25=Beyond The Clouds (1994)
EXTD=
EXTT0=
EXTT1=
EXTT2=
EXTT3=
EXTT4=
EXTT5=
EXTT6=
EXTT7=
EXTT8=
EXTT9=
EXTT10=
EXTT11=
EXTT12=
EXTT13=
EXTT14=
EXTT15=
EXTT16=
EXTT17=
EXTT18=
EXTT19=
EXTT20=
EXTT21=
EXTT22=
EXTT23=
EXTT24=
EXTT25=
PLAYORDER=
